<?xml version="1.0" encoding="utf-8"?><svg viewBox="0 0 29 25" xmlns="http://www.w3.org/2000/svg" xmlns:xlink="http://www.w3.org/1999/xlink"><style>:root>svg{display:none}:root>svg:target{display:block}</style><svg fill="none" viewBox="0 0 24 24" id="alert-circle" xmlns="http://www.w3.org/2000/svg"><path d="M12 22c5.523 0 10-4.477 10-10S17.523 2 12 2 2 6.477 2 12s4.477 10 10 10ZM12 8v4M12 16h.01" stroke="#3E3B3B" stroke-width="2" stroke-linecap="round" stroke-linejoin="round"/></svg><svg fill="none" viewBox="0 0 20 20" id="check-circle" xmlns="http://www.w3.org/2000/svg"><g clip-path="url(#ba)"><path fill="#F2F5F6" d="M0 0h20v20H0z"/><path d="M18.333 9.233V10a8.334 8.334 0 1 1-4.941-7.617" stroke="#156B2D" stroke-width="2" stroke-linecap="round" stroke-linejoin="round"/><path d="M18.333 3.333 10 11.675l-2.5-2.5" stroke="#156B2D" stroke-width="2" stroke-linecap="round" stroke-linejoin="round"/></g><defs><clipPath id="ba"><path fill="#fff" d="M0 0h20v20H0z"/></clipPath></defs></svg><svg fill="none" viewBox="0 0 20 20" id="edit-3" xmlns="http://www.w3.org/2000/svg"><path d="M10 16.667h7.5M13.75 2.917a1.768 1.768 0 0 1 2.5 2.5L5.833 15.833l-3.333.834.833-3.334L13.75 2.917Z" stroke="#3E3B3B" stroke-width="2" stroke-linecap="round" stroke-linejoin="round"/></svg><svg fill="none" viewBox="0 0 23 24" id="format-icon" xmlns="http://www.w3.org/2000/svg"><path d="M19 7a3 3 0 1 0 0-6 3 3 0 0 0 0 6ZM4 7a3 3 0 1 0 0-6 3 3 0 0 0 0 6ZM19 21a3 3 0 1 0 0-6 3 3 0 0 0 0 6ZM4 21a3 3 0 1 0 0-6 3 3 0 0 0 0 6ZM7 18.415l7.905.032M19.419 14.905 19.445 7M4.419 14.905 4.446 7M8 4.415l7.905.032" stroke="#3E3B3B" stroke-width="2" stroke-linecap="round" stroke-linejoin="round"/><path d="M15.752 10.144h-.66l-.348-1.44h-2.172v6.276l1.008.36V16h-3.048v-.66l1.008-.36V8.704H9.368l-.348 1.44h-.66V7.84h7.392v2.304Z" fill="#3E3B3B"/></svg><svg fill="none" viewBox="0 0 24 24" id="share-2" xmlns="http://www.w3.org/2000/svg"><path d="M18 8a3 3 0 1 0 0-6 3 3 0 0 0 0 6ZM6 15a3 3 0 1 0 0-6 3 3 0 0 0 0 6ZM18 22a3 3 0 1 0 0-6 3 3 0 0 0 0 6ZM8.59 13.51l6.83 3.98M15.41 6.51l-6.82 3.98" stroke="#3E3B3B" stroke-width="2" stroke-linecap="round" stroke-linejoin="round"/></svg><svg fill="none" viewBox="0 0 29 24" id="sort-icon" xmlns="http://www.w3.org/2000/svg"><path d="M12.227 2H27M5.41 2v17.778M12.227 8.667h11.364M12.227 15.333h7.955M12.227 22h4.546M5.41 22l3.213-5.756M5.214 22 2 16.244" stroke="#3E3B3B" stroke-width="3" stroke-linecap="round" stroke-linejoin="round"/></svg><svg fill="none" viewBox="0 0 25 25" id="trash-2" xmlns="http://www.w3.org/2000/svg"><path d="M3.125 6.25h18.75M8.333 6.25V4.167a2.083 2.083 0 0 1 2.084-2.084h4.166a2.083 2.083 0 0 1 2.084 2.084V6.25m3.125 0v14.583a2.083 2.083 0 0 1-2.084 2.084H7.292a2.083 2.083 0 0 1-2.084-2.084V6.25h14.584ZM10.417 11.458v6.25M14.583 11.458v6.25" stroke="#3E3B3B" stroke-width="2" stroke-linecap="round" stroke-linejoin="round"/></svg><svg fill="none" viewBox="0 0 25 25" id="trash-red" xmlns="http://www.w3.org/2000/svg"><path d="M3.125 6.25h18.75M8.333 6.25V4.167a2.083 2.083 0 0 1 2.084-2.084h4.166a2.083 2.083 0 0 1 2.084 2.084V6.25m3.125 0v14.583a2.083 2.083 0 0 1-2.084 2.084H7.292a2.083 2.083 0 0 1-2.084-2.084V6.25h14.584ZM10.417 11.458v6.25M14.583 11.458v6.25" stroke="#BC0808" stroke-width="2" stroke-linecap="round" stroke-linejoin="round"/></svg></svg>